<?xml version="1.0" encoding="utf-8"?>
<svg xmlns="http://www.w3.org/2000/svg"
	xmlns:xlink="http://www.w3.org/1999/xlink"
	width="165px" height="42px" viewBox="0 0 165 42">
<path fillRule="evenodd" d="M 164.13 20.97C 163.61 20.97 163.09 20.97 162.57 20.97 161.07 20.97 159.6 21.28 159.42 19.9 159.37 19.54 159.63 19.25 159.75 19.04 160.03 18.59 160.22 18.13 160.5 17.67 160.6 17.51 160.8 17.3 160.87 17.12 160.87 14.85 160.87 12.57 160.87 10.3 160.98 9.89 161.28 9.5 161.65 9.34 161.78 9.28 161.97 9.3 162.09 9.23 163.62 9.25 163.54 10.52 163.54 12.08 163.54 13.23 163.54 14.38 163.54 15.52 163.54 16.06 163.54 16.59 163.54 17.12 163.57 17.2 163.71 17.33 163.76 17.41 163.96 17.75 164.09 18.07 164.28 18.41 164.47 18.76 164.82 19.13 164.95 19.53 165.18 20.25 164.59 20.8 164.13 20.97ZM 160.87 7.19C 159.32 7.72 157.68 8.07 156.08 8.6 153.52 9.44 150.86 10.05 148.26 10.89 147.6 11.11 146.91 11.26 146.22 11.49 146.04 11.55 145.73 11.73 145.4 11.63 143.73 11.13 141.93 10.65 140.28 10.08 140.11 10.02 140.01 10.07 139.84 10 138.68 9.6 137.4 9.29 136.24 8.89 135.66 8.69 135.12 8.65 134.53 8.45 133.12 7.96 131.58 7.58 130.16 7.11 129.28 6.83 128.23 6.84 128.01 5.89 127.97 5.75 128.06 5.7 128.08 5.63 128.26 5.14 128.36 5.06 128.86 4.89 129.82 4.56 130.86 4.34 131.86 4 135.12 2.92 138.56 2.15 141.8 1.04 142.73 0.72 143.69 0.53 144.59 0.22 144.86 0.13 145.16 0.16 145.36 0 146.15-0.02 146.71 0.24 147.29 0.45 148.13 0.75 149.01 0.9 149.81 1.19 150.63 1.48 151.44 1.57 152.26 1.85 154.5 2.62 156.93 3.13 159.16 3.93 159.38 3.98 159.61 4.03 159.83 4.08 160.42 4.27 161.1 4.47 161.68 4.67 162.55 4.97 163.26 4.87 163.24 6.08 163.06 6.27 163 6.54 162.76 6.67 162.26 6.93 161.44 6.99 160.87 7.19ZM 129.92 27.94C 129.92 30.17 129.5 32.09 128.66 33.7 127.82 35.31 126.73 36.63 125.39 37.66 124.04 38.69 122.53 39.45 120.85 39.95 119.17 40.44 117.5 40.68 115.85 40.68 115.85 40.68 106.81 40.68 106.81 40.68 106.81 40.68 106.81 15.2 106.81 15.2 106.81 15.2 115.85 15.2 115.85 15.2 117.5 15.2 119.17 15.41 120.85 15.84 122.53 16.28 124.04 16.99 125.39 17.99 126.73 18.98 127.82 20.29 128.66 21.91 129.5 23.53 129.92 25.54 129.92 27.94ZM 124.16 23.48C 123.56 22.32 122.79 21.42 121.84 20.78 120.89 20.13 119.83 19.68 118.66 19.44 117.48 19.2 116.3 19.08 115.13 19.08 115.13 19.08 111.35 19.08 111.35 19.08 111.35 19.08 111.35 36.72 111.35 36.72 111.35 36.72 115.13 36.72 115.13 36.72 116.3 36.72 117.48 36.59 118.66 36.31 119.83 36.03 120.89 35.57 121.84 34.91 122.79 34.25 123.56 33.35 124.16 32.22 124.76 31.1 125.06 29.67 125.06 27.94 125.06 26.12 124.76 24.63 124.16 23.48ZM 94.86 38.63C 93.95 39.5 92.87 40.16 91.62 40.63 90.37 41.1 89.02 41.33 87.55 41.33 86.09 41.33 84.73 41.1 83.48 40.63 82.24 40.16 81.15 39.5 80.23 38.63 79.3 37.77 78.58 36.72 78.07 35.48 77.55 34.25 77.29 32.86 77.29 31.32 77.29 31.32 77.29 15.2 77.29 15.2 77.29 15.2 81.83 15.2 81.83 15.2 81.83 15.2 81.83 31.14 81.83 31.14 81.83 31.89 81.92 32.63 82.12 33.36 82.31 34.09 82.63 34.74 83.07 35.32 83.51 35.9 84.1 36.36 84.83 36.72 85.57 37.08 86.47 37.26 87.55 37.26 88.63 37.26 89.54 37.08 90.27 36.72 91 36.36 91.59 35.9 92.03 35.32 92.48 34.74 92.8 34.09 92.99 33.36 93.18 32.63 93.28 31.89 93.28 31.14 93.28 31.14 93.28 15.2 93.28 15.2 93.28 15.2 97.81 15.2 97.81 15.2 97.81 15.2 97.81 31.32 97.81 31.32 97.81 32.86 97.55 34.25 97.02 35.48 96.49 36.72 95.77 37.77 94.86 38.63ZM 63.14 40.68C 63.14 40.68 58.61 40.68 58.61 40.68 58.61 40.68 58.61 19.16 58.61 19.16 58.61 19.16 50.8 19.16 50.8 19.16 50.8 19.16 50.8 15.2 50.8 15.2 50.8 15.2 70.96 15.2 70.96 15.2 70.96 15.2 70.96 19.16 70.96 19.16 70.96 19.16 63.14 19.16 63.14 19.16 63.14 19.16 63.14 40.68 63.14 40.68ZM 34.94 24.34C 35.36 24.63 35.87 24.88 36.47 25.1 37.07 25.31 37.73 25.53 38.45 25.74 39.26 26.01 40.11 26.31 40.99 26.64 41.86 26.98 42.67 27.42 43.4 27.98 44.13 28.53 44.73 29.22 45.2 30.06 45.67 30.9 45.9 31.95 45.9 33.2 45.9 34.56 45.65 35.76 45.14 36.78 44.64 37.8 43.97 38.64 43.13 39.32 42.29 39.99 41.3 40.49 40.18 40.83 39.05 41.16 37.86 41.33 36.61 41.33 34.96 41.33 33.34 41.03 31.75 40.41 30.17 39.8 28.87 38.9 27.86 37.7 27.86 37.7 31.1 34.67 31.1 34.67 31.73 35.54 32.56 36.22 33.61 36.72 34.65 37.23 35.68 37.48 36.68 37.48 37.21 37.48 37.75 37.41 38.3 37.28 38.86 37.15 39.35 36.93 39.8 36.62 40.24 36.3 40.6 35.91 40.88 35.45 41.15 34.98 41.29 34.4 41.29 33.7 41.29 33.03 41.14 32.47 40.82 32.03 40.51 31.58 40.09 31.2 39.56 30.87 39.04 30.55 38.41 30.27 37.69 30.03 36.97 29.79 36.22 29.54 35.42 29.27 34.66 29.03 33.89 28.74 33.12 28.41 32.35 28.07 31.66 27.63 31.05 27.08 30.44 26.52 29.94 25.85 29.56 25.04 29.17 24.24 28.98 23.24 28.98 22.04 28.98 20.74 29.25 19.62 29.79 18.69 30.33 17.75 31.04 16.98 31.91 16.37 32.79 15.75 33.79 15.3 34.9 15 36.02 14.7 37.15 14.55 38.3 14.55 39.6 14.55 40.91 14.78 42.25 15.23 43.58 15.69 44.74 16.37 45.72 17.28 45.72 17.28 42.77 20.52 42.77 20.52 42.29 19.9 41.61 19.38 40.73 18.96 39.86 18.54 38.98 18.33 38.09 18.33 37.56 18.33 37.03 18.4 36.5 18.53 35.98 18.66 35.5 18.86 35.06 19.14 34.63 19.41 34.28 19.77 34 20.22 33.73 20.66 33.59 21.2 33.59 21.82 33.59 22.4 33.71 22.89 33.95 23.3 34.19 23.7 34.52 24.05 34.94 24.34ZM 17.82 38.63C 16.91 39.5 15.83 40.16 14.58 40.63 13.33 41.1 11.98 41.33 10.51 41.33 9.05 41.33 7.69 41.1 6.44 40.63 5.2 40.16 4.11 39.5 3.19 38.63 2.26 37.77 1.54 36.72 1.03 35.48 0.51 34.25 0.25 32.86 0.25 31.32 0.25 31.32 0.25 15.2 0.25 15.2 0.25 15.2 4.79 15.2 4.79 15.2 4.79 15.2 4.79 31.14 4.79 31.14 4.79 31.89 4.88 32.63 5.08 33.36 5.27 34.09 5.59 34.74 6.03 35.32 6.47 35.9 7.06 36.36 7.79 36.72 8.53 37.08 9.43 37.26 10.51 37.26 11.59 37.26 12.5 37.08 13.23 36.72 13.96 36.36 14.55 35.9 14.99 35.32 15.44 34.74 15.76 34.09 15.95 33.36 16.14 32.63 16.24 31.89 16.24 31.14 16.24 31.14 16.24 15.2 16.24 15.2 16.24 15.2 20.77 15.2 20.77 15.2 20.77 15.2 20.77 31.32 20.77 31.32 20.77 32.86 20.51 34.25 19.98 35.48 19.45 36.72 18.73 37.77 17.82 38.63ZM 145.15 25.92C 145.15 25.92 151.63 15.2 151.63 15.2 151.63 15.2 156.89 15.2 156.89 15.2 156.89 15.2 147.31 29.63 147.31 29.63 147.31 29.63 147.31 40.68 147.31 40.68 147.31 40.68 142.78 40.68 142.78 40.68 142.78 40.68 142.78 29.63 142.78 29.63 142.78 29.63 133.2 15.2 133.2 15.2 133.2 15.2 138.74 15.2 138.74 15.2 138.74 15.2 145.15 25.92 145.15 25.92Z" fill="rgb(255,255,255)"/></svg>